<?xml version="1.0" encoding="UTF-8"?>
<!DOCTYPE svg PUBLIC "-//W3C//DTD SVG 1.1//EN" "http://www.w3.org/Graphics/SVG/1.1/DTD/svg11.dtd">
<!-- Creator: CorelDRAW X7 -->
<svg xmlns="http://www.w3.org/2000/svg" xml:space="preserve" width="268px" height="240px" version="1.1" style="shape-rendering:geometricPrecision; text-rendering:geometricPrecision; image-rendering:optimizeQuality; fill-rule:evenodd; clip-rule:evenodd"
viewBox="0 0 268 240"
 xmlns:xlink="http://www.w3.org/1999/xlink">
 <defs>
  <style type="text/css">
   <![CDATA[
    .fil6 {fill:#FEFEFE}
    .fil5 {fill:black}
    .fil1 {fill:#016316}
    .fil2 {fill:#8C9F33}
    .fil9 {fill:#D89F07}
    .fil3 {fill:#E4A108}
    .fil4 {fill:#EEBC03}
    .fil0 {fill:#F7D915}
    .fil10 {fill:#B78E00;fill-rule:nonzero}
    .fil7 {fill:url(#id0)}
    .fil8 {fill:url(#id1)}
   ]]>
  </style>
  <linearGradient id="id0" gradientUnits="userSpaceOnUse" x1="100.168" y1="120.004" x2="134.348" y2="127.269">
   <stop offset="0" style="stop-opacity:1; stop-color:#ECA400"/>
   <stop offset="0.419608" style="stop-opacity:1; stop-color:#ECA400"/>
   <stop offset="0.231373" style="stop-opacity:1; stop-color:#EDA804"/>
   <stop offset="0.34902" style="stop-opacity:1; stop-color:#F3C627"/>
   <stop offset="0.478431" style="stop-opacity:1; stop-color:#F5CD2E"/>
   <stop offset="0.74902" style="stop-opacity:1; stop-color:#F4C728"/>
   <stop offset="0.901961" style="stop-opacity:1; stop-color:#EDA704"/>
   <stop offset="1" style="stop-opacity:1; stop-color:#ECA400"/>
  </linearGradient>
  <linearGradient id="id1" gradientUnits="userSpaceOnUse" xlink:href="#id0" x1="133.778" y1="120.004" x2="167.957" y2="127.269">
  </linearGradient>
 </defs>
 <g id="Layer_x0020_1">
  <metadata id="CorelCorpID_0Corel-Layer"/>
  <g id="_1968039574752">
   <polygon class="fil0" points="134,0 201,46 268,92 242,166 217,240 134,240 51,240 26,166 0,92 67,46 "/>
   <polygon class="fil1" points="134,11 195,53 256,94 233,162 209,229 134,229 59,229 35,162 12,94 73,53 "/>
   <path class="fil2" d="M88 179c-2,1 -3,1 -4,2 -4,-7 -8,-11 -12,-11 -3,0 -5,0 -7,2 -4,2 -8,0 -7,-4 -4,-3 -2,-9 3,-8 3,-4 8,-2 8,3 0,2 2,4 4,6 1,0 1,0 1,-2 -4,-7 -6,-11 -9,-11 -3,-1 -5,-1 -6,0 -5,4 -9,-1 -7,-5 -2,-3 -1,-7 4,-6 1,-4 7,-3 8,2 0,3 -1,4 2,8 1,1 1,0 1,-2 -1,-1 -1,-4 -2,-8 -1,-4 -4,-7 -7,-8 -2,0 -3,1 -4,1 -3,2 -7,-2 -4,-5 -2,-4 0,-8 5,-5 3,-3 8,-1 6,4 -1,2 -1,4 0,5 1,1 2,2 3,2 0,-4 0,-8 0,-11 0,-1 -1,-2 -2,-4 -3,-4 -4,-2 -8,-3 -3,-1 -4,-5 -1,-7 -3,-4 2,-8 6,-4 3,-2 7,1 5,5 -1,3 -2,3 -2,6 1,1 1,2 2,3 0,0 0,0 0,-1 1,-4 2,-7 2,-9 0,-2 0,-3 0,-4 -1,-1 -2,-2 -2,-3 -1,-2 -3,-3 -5,-3 -3,-1 -4,-6 0,-7 -1,-4 4,-6 7,-2 4,-1 6,4 3,6 -2,2 -3,4 -2,8 0,1 1,1 1,0 1,-3 2,-6 3,-9 1,-1 1,-2 1,-3 -1,-2 -1,-4 -1,-5 0,-2 -1,-3 -3,-3 -4,-2 -3,-7 1,-7 0,-5 7,-5 7,0 4,0 4,3 2,5 -3,2 -4,4 -5,5 0,3 0,4 1,3 3,-3 5,-6 7,-8 1,-1 1,-2 1,-4 1,-3 0,-5 -3,-6 -3,-3 -2,-8 3,-8 2,-4 7,-3 7,1 3,2 3,5 0,6 -4,2 -5,5 -5,7 0,1 0,1 0,0 3,-3 6,-5 9,-7 0,-1 1,-1 1,-2 0,-4 0,-5 -1,-5 -5,-3 -3,-9 3,-8 3,-5 9,-2 7,3 4,1 3,7 -1,7 -3,0 -4,0 -5,1 -2,2 -2,3 -1,2 4,-1 7,-3 12,-5 1,-1 2,-3 2,-4 0,-4 6,-4 7,-1 5,-1 6,5 2,7 0,4 -5,5 -6,2 -2,-2 -2,-3 -6,-2 -4,1 -8,3 -12,6 7,1 9,0 10,-2 1,-4 7,-3 6,1 5,1 4,5 0,6 1,4 -5,4 -6,1 -3,-7 -13,-6 -20,2 -1,1 -1,2 1,2 4,-1 6,-4 7,-6 1,-2 5,-3 6,1 5,-1 5,6 0,6 1,2 -4,4 -5,2 -3,-4 -11,-3 -15,1 -2,3 -4,6 -4,8 3,-1 5,-2 5,-5 1,-4 6,-6 7,-3 6,0 6,5 2,7 1,3 -4,5 -5,3 -3,-3 -9,-2 -12,3 -2,2 -2,5 -3,8 3,-1 5,-3 4,-6 0,-1 0,-2 1,-3 1,-2 4,-2 5,0 4,-3 8,3 4,5 2,3 -2,7 -5,5 -2,-1 -3,-2 -4,-1 -4,1 -7,4 -7,7 0,2 -1,4 -1,7 3,-2 4,-3 3,-5 0,-2 -1,-3 0,-4 0,-2 2,-2 4,-1 4,-3 8,0 5,4 2,2 1,4 -1,5 -2,0 -4,0 -5,0 -1,-1 -1,-1 -2,0 -3,2 -4,4 -4,6 0,2 0,4 0,7 0,2 1,2 2,0 1,-2 1,-4 0,-5 -2,-4 1,-7 4,-6 5,-3 9,1 6,5 3,1 1,5 -2,4 -3,0 -5,0 -7,2 -2,2 -3,4 -2,10 1,6 2,8 3,6 1,-3 1,-5 0,-5 -4,-4 -3,-8 1,-8 2,-5 8,-3 8,1 3,1 3,7 -1,7 -3,0 -4,1 -5,3 -2,3 -2,5 -1,9 4,7 6,10 6,8 0,-3 0,-4 -1,-5 -5,-4 -4,-8 0,-8 2,-6 8,-4 8,1 4,1 3,5 -1,7 -3,2 -4,3 -5,5 0,2 1,3 3,5 2,2 4,4 6,5z"/>
   <path class="fil3" d="M182 182c1,-1 1,-3 0,-3 1,-2 3,-3 4,-4l0 0c-6,-1 -6,-9 -2,-14 0,1 0,2 0,2 -1,2 0,3 1,4 2,3 3,5 2,6 0,1 0,1 0,1 1,-2 2,-3 3,-4 -4,0 -6,-8 -4,-13 0,1 0,1 0,2 0,2 1,3 2,4 2,2 3,4 2,6 0,0 0,0 0,0 1,-1 2,-2 3,-4 0,0 -1,0 -1,0 -4,0 -6,-8 -4,-13 1,0 1,1 1,2 0,2 1,3 2,4 1,2 2,4 2,6 0,0 0,0 0,1 1,-2 2,-3 2,-4 0,-1 0,-1 0,-1 -5,0 -7,-8 -5,-13 0,1 0,1 0,2 1,2 2,3 3,4 1,2 2,3 2,6 0,0 0,0 1,1 0,-2 1,-3 2,-5 0,0 -1,0 -1,0 -4,0 -7,-7 -6,-12 1,0 1,1 1,2 0,1 1,2 3,3 2,2 3,3 2,5 1,1 1,1 1,1 1,-1 1,-3 2,-5 0,0 0,0 0,0 -4,1 -8,-6 -8,-11 1,0 1,1 1,2 1,1 2,2 3,3 2,1 4,3 4,5 0,0 0,0 0,0 1,-1 1,-3 1,-5 0,0 0,0 0,0 -4,1 -8,-6 -8,-12 0,1 1,2 1,2 1,2 2,3 3,3 2,2 3,3 4,5 0,1 0,1 0,1 1,-2 1,-3 1,-5 0,0 0,0 0,0 0,-1 0,-1 0,-1 -4,2 -9,-4 -9,-10 0,0 0,1 1,2 1,1 2,2 3,2 3,1 4,3 5,5 0,0 0,0 0,1 0,-2 0,-4 0,-6 0,0 0,0 -1,0 -3,2 -9,-4 -10,-9 1,0 1,1 2,1 1,2 2,2 3,3 3,0 4,2 5,4 0,0 1,0 1,0 0,-1 0,-3 0,-4 0,-1 0,-1 0,-1 -4,3 -11,-2 -12,-8 0,0 1,0 2,1 1,2 2,2 4,2 2,1 4,2 5,4 0,0 0,0 1,0 -1,-1 -1,-3 -1,-4 0,0 -1,0 -1,-1 -3,4 -10,-2 -12,-8 0,0 1,1 2,2 1,1 2,2 4,2 3,0 5,1 6,3 0,0 0,0 0,1 0,-2 0,-4 -1,-5 0,-1 0,-1 0,-1 -3,4 -11,-1 -14,-7 1,1 2,1 2,2 2,1 3,1 5,1 2,0 4,1 6,3 0,0 0,0 1,0 -1,-1 -2,-3 -2,-5l-1 0c-2,4 -10,1 -14,-5 1,0 2,1 3,1 1,1 3,1 4,1 3,0 5,0 7,2 0,0 0,0 0,0 -1,-1 -1,-3 -2,-4 -2,4 -11,1 -14,-5 1,0 1,1 2,1 2,1 3,1 5,1 2,0 5,0 6,2 0,0 0,0 0,0 0,-1 -1,-3 -2,-4 -2,3 -10,1 -14,-3 1,0 1,0 2,0 2,1 3,1 5,1 2,-1 4,-1 6,0 -1,-1 -1,-1 -2,-2 0,0 0,0 -1,0 -2,3 -10,1 -14,-3 1,0 1,0 2,0 2,1 3,1 5,1 2,-1 5,-1 6,1 1,0 1,0 1,0 -1,-1 -2,-3 -3,-4 -1,0 -1,0 -2,0 -1,3 -9,3 -13,-1 0,0 1,0 2,0 1,1 3,1 4,0 3,-1 5,-1 6,0 1,1 1,0 2,0 0,0 -1,-1 -2,-2 -1,0 -1,0 -1,0 -3,2 -12,2 -14,0 1,0 2,0 3,0 1,0 2,-1 3,-1 2,-1 5,-1 6,0 1,0 2,0 2,0 -1,-1 -2,-2 -3,-3 0,1 -1,1 -1,1 -3,2 -11,2 -13,0 0,0 1,0 2,0 1,0 2,-1 3,-2 2,-1 5,0 7,0 0,0 1,1 1,1 -1,-2 -3,-3 -5,-4 0,0 0,0 0,0 -1,3 -9,4 -13,2 0,-1 1,-1 2,0 1,0 2,-1 4,-2 2,-1 4,-1 6,0 0,0 0,0 0,-1 -1,0 -2,-1 -3,-2 -1,0 -1,0 -1,0 -1,4 -9,4 -14,1 1,0 1,0 2,0 2,1 3,0 4,0 3,-1 5,-2 7,-1 0,0 0,0 1,0 -1,-1 -2,-1 -3,-2 0,0 0,0 0,0 0,0 0,0 -1,0 0,0 -1,0 -1,0 -1,2 -8,2 -12,0 1,0 1,0 2,1 2,0 3,-1 4,-1 2,-1 4,-1 5,0 1,0 1,0 1,0 0,-1 -1,-1 -1,-1 -2,1 -5,0 -7,-2 -1,-1 -2,-1 -4,-1 -1,0 -2,0 -2,0 5,-3 13,-2 14,3 0,0 1,0 2,0 0,0 0,0 0,0 0,0 0,0 0,0 0,-1 0,-1 0,-1 -2,0 -3,-2 -3,-4 0,-2 -1,-3 -2,-4 0,0 -1,-1 -1,-1 5,0 10,5 7,9 0,0 0,0 0,0 0,0 1,1 1,1 1,0 2,1 3,1 -1,0 -1,0 -1,-1 -1,0 -2,-2 -1,-4 0,-1 0,-3 -1,-4 0,0 0,-1 0,-1 4,1 7,7 3,10 0,0 0,0 0,1 2,1 3,2 4,2 0,0 0,0 0,0 -1,-2 -2,-3 -1,-6 1,-1 1,-2 0,-3 0,-1 -1,-1 -1,-2 5,2 7,9 3,11 0,0 0,1 0,1 1,1 3,2 4,3 0,0 0,0 0,-1 -1,-1 -2,-3 -1,-5 1,-2 1,-3 0,-5 0,0 0,-1 0,-2 4,3 6,11 2,13 0,0 0,0 0,1 1,1 2,1 3,2 0,0 0,-1 0,-1 -1,-1 -1,-3 0,-6 1,-1 1,-2 0,-3 0,-1 0,-2 0,-2 4,3 5,10 1,12 0,0 0,1 0,1 1,1 2,2 3,3 0,0 0,0 0,0 -1,-2 -1,-4 0,-6 1,-2 1,-3 1,-5 0,0 -1,-1 0,-2 4,4 5,11 0,14 0,0 0,0 0,0 1,1 2,3 3,4 0,0 0,0 0,0 -1,-2 -1,-4 1,-6 1,-2 1,-3 1,-5 0,0 -1,-1 0,-2 4,4 4,12 -1,14 0,0 0,0 0,0 1,1 2,3 3,4 0,0 0,-1 0,-1 -1,-2 -1,-4 1,-6 1,-1 2,-2 1,-4 0,-1 0,-1 0,-2 5,4 4,12 -1,13 0,0 0,1 -1,1 1,1 1,1 1,2 1,1 1,1 2,2 0,0 0,-1 0,-1 0,-1 0,-3 2,-5 1,-1 2,-2 2,-3 0,-1 0,-2 1,-2 3,4 1,11 -4,11 0,0 0,1 -1,1 1,2 2,3 3,5 0,-1 0,-1 0,-1 0,-2 0,-4 3,-5 1,-1 2,-2 2,-4 0,-1 0,-1 0,-2 3,5 1,11 -4,12 0,0 0,0 -1,1 1,1 1,3 2,5 0,-1 1,-1 1,-1 -1,-2 0,-4 2,-5 1,-1 2,-2 2,-3 0,-1 0,-2 1,-2 2,4 0,11 -5,11 0,0 0,0 -1,1 1,1 1,3 2,4 0,0 0,0 0,-1 0,-1 1,-3 3,-4 1,-1 2,-2 3,-3 0,-1 0,-1 0,-2 2,5 -1,11 -5,11 -1,0 -1,0 -1,1 0,1 0,2 1,4 0,0 0,-1 0,-1 0,-2 1,-3 4,-4 1,0 2,-1 3,-2 0,-1 0,-2 1,-2 1,5 -3,11 -8,9 0,0 0,1 0,1 0,2 0,4 0,6 1,0 1,0 1,-1 0,-1 1,-3 4,-4 1,0 2,-1 3,-2 0,-1 0,-2 1,-2 1,5 -3,11 -8,9 0,1 0,1 -1,1 0,2 0,4 0,6 1,0 1,0 1,-1 0,-1 2,-3 4,-3 2,-1 3,-2 3,-3 1,0 1,-1 1,-1 2,4 -3,10 -8,8 0,1 0,1 -1,1 0,2 0,3 -1,5 1,0 1,-1 2,-1 0,-1 1,-3 4,-3 1,0 3,-1 3,-2 1,0 1,-1 2,-1 0,5 -5,9 -9,7 -1,0 -1,1 -2,1 0,1 0,3 -1,4 1,0 1,0 2,0 0,-2 2,-3 4,-3 2,0 3,0 4,-1 0,-1 1,-1 1,-2 0,6 -6,10 -10,7 0,0 0,0 -1,1 -1,1 -1,3 -2,5 1,0 1,0 1,0 1,-2 2,-3 5,-3 2,0 3,-1 4,-2 1,0 1,-1 2,-1 -1,6 -7,10 -11,7 -1,0 -1,0 -1,0 -1,2 -1,3 -2,4 0,0 0,0 0,0 1,-2 3,-3 6,-2 2,0 3,0 4,-1 1,0 1,-1 2,-1 -1,6 -8,9 -12,5 0,0 0,0 -1,0 0,1 -1,3 -1,4 0,0 0,0 0,0 1,-2 3,-2 6,-1 1,0 3,0 4,-1 1,0 1,-1 2,-1 -2,6 -10,8 -13,4 0,0 0,0 0,0 -1,1 -2,3 -3,4 1,0 1,0 1,0 2,-2 4,-2 6,-1 2,0 3,0 4,-1 1,0 2,-1 2,0 -2,5 -9,7 -12,3 -1,0 -1,0 -1,0 -1,1 -1,2 -2,2 1,0 3,0 5,1 1,1 3,1 4,0 1,0 2,-1 3,0 -3,5 -11,7 -15,2 -1,2 -3,4 -5,6z"/>
   <polygon class="fil4" points="134,41 138,54 152,54 141,61 145,74 134,66 123,74 127,61 116,54 130,54 "/>
   <path class="fil5" d="M134 11l61 42 61 41 -23 68 -24 67 -75 0 -75 0 -24 -67 -23 -68 61 -41 61 -42zm-74 178c-5,1 -9,4 -10,8 6,-1 12,0 17,3 6,4 9,4 11,1 1,-2 -1,-5 -5,-8 -2,-2 -2,-4 0,-6l6 -5c-11,-5 -22,-6 -30,-4 5,3 8,7 11,11zm148 0c6,1 9,4 11,8 -7,-1 -13,0 -18,3 -5,4 -9,4 -11,1 -1,-2 1,-5 5,-8 2,-2 2,-4 0,-6l-6 -5c12,-5 22,-6 30,-4 -5,3 -8,7 -11,11zm-24 8l5 5c1,1 3,2 5,2 0,0 0,0 0,0 2,0 5,-1 8,-3 2,-2 5,-3 7,-3 3,-1 6,-1 9,0l1 0 -10 31 -75 0 -75 0 -10 -31 1 0c3,-1 6,-1 9,0 2,0 5,1 7,3 3,2 6,3 8,3 0,0 0,0 0,0 2,0 4,-1 5,-2l5 -5c5,3 10,6 16,8 10,4 22,7 34,7 12,0 24,-3 34,-7 6,-2 11,-5 16,-8zm36 0l-1 -1c0,-2 -2,-4 -4,-5 -1,-1 -3,-2 -5,-3 1,-1 2,-3 4,-4 1,-2 4,-3 6,-5l2 -1 -2 0c-5,-2 -10,-2 -15,-2 -5,1 -10,2 -16,5l-1 0 -9 -8c-1,-1 -3,-3 -6,0 -5,4 -11,8 -18,10 -6,3 -14,4 -21,4 -7,0 -14,-1 -21,-4 -7,-2 -13,-6 -18,-10 -3,-3 -5,-1 -5,0l-10 8 -1 0c-5,-3 -11,-4 -16,-5 -5,0 -10,0 -15,2l-2 0 2 1c3,2 5,3 7,5 1,1 2,3 3,4 -2,1 -4,2 -5,3 -2,1 -4,3 -4,5l-1 1 -12 -35 -23 -67 61 -42 60 -41 60 41 61 42 -23 67 -12 35zm-26 -10c-13,14 -35,24 -60,24 -25,0 -47,-10 -59,-24l15 -13c0,0 2,-2 4,0 11,9 25,14 40,14 15,0 29,-5 40,-14 2,-2 4,0 4,0l16 13z"/>
   <path class="fil6" d="M195 187l-6 -5c11,-5 22,-6 30,-4 -5,3 -8,7 -11,11 5,1 9,4 11,8 -7,-1 -13,0 -18,3 -5,4 -9,4 -11,1 -1,-2 1,-5 5,-8 2,-2 2,-4 0,-6zm-28 -49l-27 15 0 -1 27 -14 0 -1 -33 17 0 0 0 0 -33 -17 0 1 27 14 0 0 -27 -14 -2 3 29 16 1 0 -1 0 -17 10 3 3 20 -11 0 0 0 0 20 11 3 -3 -17 -10 -1 0 1 0 29 -16 -2 -3zm-28 15l-3 2 0 -1 3 -2 0 1zm-10 -1l3 2 0 1 -3 -2 0 -1zm-71 11c-1,2 0,3 2,3 0,1 1,1 0,1 -1,1 0,4 1,4 3,0 4,-2 3,-3 -1,0 0,-1 0,0 1,0 3,0 3,-1 1,-2 0,-2 -2,-2 -1,-1 -1,-2 0,-2 1,1 2,1 2,-1 0,-2 -2,-3 -3,-2 -1,0 -1,0 -1,1 0,1 -1,1 -2,0 -1,0 -3,1 -3,2zm62 -96c-1,-2 -2,-2 -3,-2 -1,1 -1,1 -1,0 0,-1 -2,-2 -3,-2 -2,1 -1,3 0,3 1,0 1,1 0,1 -1,0 -2,1 -2,2 1,1 2,1 3,0 1,0 2,0 1,1 -1,0 -2,1 -1,2 1,1 3,1 4,0 0,-1 0,-1 0,-2 -1,0 0,-1 0,-1 2,0 2,-1 2,-2zm-7 12c0,-2 -2,-2 -3,-2 0,0 -1,0 -1,-1 1,-1 0,-3 -2,-2 -2,0 -2,2 -1,2 1,1 1,1 0,1 -1,0 -2,0 -2,1 0,2 1,2 3,2 0,-1 1,0 0,0 -1,1 -2,1 -1,2 0,2 2,2 3,1 0,0 1,-1 1,-1 -1,-1 0,-1 0,-1 2,0 3,-1 3,-2zm-13 -18c-2,-1 -3,0 -4,1 0,1 0,1 -1,1 -1,-1 -3,-1 -3,1 -1,2 2,3 2,2 1,-1 2,0 1,0 -1,1 -1,3 1,3 2,1 2,0 2,-2 1,-1 2,-1 2,0 -1,2 0,2 2,3 2,0 2,-2 2,-3 -1,-1 -1,-1 -2,-2 0,0 -1,0 0,-1 1,-1 -1,-3 -2,-3zm-14 7c-3,-1 -4,1 -4,2 0,1 0,1 -1,0 0,0 -3,0 -3,2 1,2 2,3 3,2 1,-1 1,-1 1,0 -1,1 -1,2 1,3 1,0 2,-1 2,-3 0,-1 1,-1 1,0 0,1 0,2 2,2 2,0 2,-2 1,-3 0,-1 0,-1 -1,-1 -1,0 -1,0 -1,-1 1,-2 0,-3 -1,-3zm15 16c0,-2 -2,-2 -3,-1 0,0 -1,0 0,-1 0,-1 -2,-2 -3,-2 -2,1 -2,3 -1,3 1,0 1,1 1,1 -1,-1 -3,0 -2,1 0,1 1,2 2,1 1,0 2,0 1,1 -1,0 -2,0 -1,2 1,1 3,1 3,0 1,-1 1,-1 1,-2 0,0 0,0 0,-1 2,0 3,-1 2,-2zm-29 -5c-2,0 -2,2 -2,3 0,1 0,1 -1,1 -1,0 -3,1 -2,3 1,2 3,1 3,1 0,-1 1,-1 1,-1 -1,1 0,3 2,2 1,0 1,-1 1,-2 -1,-1 0,-2 1,-1 0,1 1,2 2,1 2,-1 1,-2 0,-3 0,-1 -1,-1 -1,-1 -1,1 -1,0 -1,-1 0,-1 -2,-2 -3,-2zm18 15c-1,-2 -2,-2 -3,-1 -1,0 -1,0 -1,-1 0,-1 -2,-2 -3,-1 -2,1 -1,3 0,3 1,0 1,0 0,0 -1,0 -2,1 -1,3 0,1 1,1 2,0 1,-1 2,0 1,0 -1,1 -1,2 0,3 1,2 2,1 3,-1 0,0 0,-1 0,-1 0,0 0,-1 1,-1 1,-1 1,-2 1,-3zm-28 0c-3,1 -3,3 -2,4 0,0 0,1 0,1 -2,-1 -3,1 -2,3 1,2 3,1 3,0 0,-1 1,-1 1,0 0,1 1,2 2,2 2,-1 2,-2 1,-4 -1,0 0,-1 1,-1 0,2 1,2 3,1 1,-1 0,-3 -1,-4 -1,0 -1,0 -2,0 0,1 -1,1 -1,0 -1,-2 -2,-2 -3,-2zm21 10c-1,-2 -3,-1 -4,0 0,0 0,0 -1,0 0,-1 -2,-2 -3,-1 -1,2 0,3 1,3 1,0 1,0 1,1 -1,0 -2,1 -1,2 1,1 1,1 3,0 0,-1 1,-1 1,0 -1,1 -2,2 0,3 1,1 2,-1 3,-2 0,-1 0,-1 -1,-2 0,0 0,0 0,-1 2,-1 2,-2 1,-3zm-29 6c-2,2 -1,4 0,5 1,0 1,1 0,1 -1,0 -2,3 0,4 2,1 3,-1 3,-2 0,-1 0,-1 0,0 1,1 3,2 4,1 1,-2 1,-2 -1,-4 -1,0 -1,-2 0,-1 1,1 2,1 3,0 1,-2 0,-4 -2,-4 -1,0 -1,0 -2,1 0,0 -1,0 -1,0 -1,-2 -3,-2 -4,-1zm23 6c-2,-1 -3,0 -4,1 0,0 0,1 -1,0 0,-1 -2,-1 -3,1 -1,2 1,3 2,2 0,0 1,0 0,0 0,1 -1,2 0,3 2,1 2,0 3,-1 0,-1 1,-1 1,-1 -1,2 -1,3 1,3 2,1 2,-1 2,-2 0,-1 0,-2 -1,-2 0,0 0,0 0,-1 1,-1 0,-3 0,-3zm-1 12c-1,-2 -3,0 -3,1 0,0 -1,0 -1,0 -1,-1 -3,-1 -3,0 -1,2 1,3 1,3 1,-1 1,0 1,0 -1,1 -1,2 0,3 1,0 2,0 3,-2 0,-1 1,-1 1,0 -1,2 -1,2 1,3 2,0 2,-2 2,-3 0,0 0,-1 -1,-1 0,0 0,-1 0,-1 1,-2 0,-3 -1,-3zm-25 0c-2,2 -1,4 0,4 1,1 1,1 0,1 -1,1 -1,3 0,4 3,1 4,-1 3,-2 0,0 0,-1 1,0 0,1 2,1 3,0 1,-1 0,-2 -2,-3 0,0 0,-1 1,-1 1,1 2,1 3,-1 0,-2 -1,-3 -3,-3 -1,0 -1,1 -1,1 -1,1 -1,1 -2,0 -1,-1 -2,-1 -3,0zm24 11c-2,0 -3,1 -3,3 0,0 0,1 -1,0 -1,0 -3,1 -3,3 1,2 3,2 3,1 1,-1 1,0 1,0 0,1 0,3 1,3 2,0 2,-1 2,-3 0,-1 1,-1 1,-1 0,2 1,3 3,3 2,-1 1,-3 1,-4 -1,-1 -1,-1 -2,-1 -1,0 -1,0 -1,-1 1,-2 -1,-3 -2,-3zm-22 8c-2,2 0,3 1,4 1,0 1,1 0,1 -1,1 -1,3 1,4 2,1 3,-1 3,-2 -1,-1 0,-1 0,-1 1,1 3,1 3,0 1,-2 1,-2 -1,-3 -1,0 -1,-2 -1,-1 2,0 3,0 3,-2 1,-2 -1,-3 -3,-2 0,0 -1,0 -1,1 0,0 -1,1 -2,0 -1,-1 -3,0 -3,1zm28 7c-2,0 -3,1 -2,3 0,0 -1,1 -1,0 -1,-1 -3,0 -3,2 1,2 2,2 3,2 0,-1 1,-1 0,0 0,0 0,2 2,2 1,0 2,-1 1,-3 0,0 1,-1 1,0 0,1 1,2 2,2 2,-1 2,-3 1,-4 0,0 -1,0 -1,0 -1,0 -1,-1 -1,-1 0,-2 -1,-3 -2,-3zm-8 33l6 -5c-11,-5 -22,-6 -30,-4 5,3 8,7 11,11 -5,1 -9,4 -11,8 7,-1 13,0 18,3 5,4 9,4 11,1 1,-2 -1,-5 -5,-8 -2,-2 -2,-4 0,-6zm120 0c-12,14 -34,24 -59,24 -25,0 -47,-10 -59,-24l15 -13c0,0 2,-2 4,0 11,9 25,14 40,14 15,0 29,-5 40,-14 2,-2 4,0 4,0l15 13z"/>
   <path class="fil7" d="M100 130c14,0 24,6 34,15l0 -34c-7,-5 -15,-8 -24,-8l-10 27z"/>
   <path class="fil8" d="M168 130c-14,0 -24,6 -34,15l0 -34c7,-5 15,-8 24,-8l10 27z"/>
   <path class="fil9" d="M100 130l1 7c13,1 23,5 29,13l8 0c6,-8 16,-12 29,-13l1 -7c-14,0 -24,6 -34,15 -10,-9 -20,-15 -34,-15z"/>
   <path class="fil5" d="M118 111c0,0 -1,0 -1,1 0,0 0,0 0,0 1,0 1,0 1,0 0,0 0,0 1,0 0,0 0,0 0,0 1,1 1,1 2,1 0,0 0,0 1,0 0,0 0,1 1,1 0,0 0,0 0,0 1,0 1,0 2,0 1,0 1,0 1,1 1,0 1,1 2,0 -1,0 -1,0 -2,0 0,-1 0,-1 -1,-1 -1,0 -1,0 -1,-1 -1,0 -1,0 -2,0 0,0 0,0 0,-1 0,0 -1,0 -2,0 0,0 0,0 0,0 -1,-1 -1,-1 -2,0 0,0 0,0 0,-1zm-3 9c0,-1 0,0 -1,0 0,0 1,0 1,0 0,0 0,0 0,0 0,0 1,0 1,0 1,0 1,0 1,1 0,0 1,0 1,0 1,0 1,0 1,0 0,1 1,1 2,1 0,0 0,0 0,0 0,1 1,1 2,1 0,0 1,0 1,0 0,1 1,1 2,1 -1,0 -2,-1 -2,-1 0,-1 -1,-1 -1,-1 -1,0 -1,0 -2,0 0,-1 0,-1 -1,-1 0,0 -1,0 -1,0 0,-1 0,-1 -1,-1 -1,0 -1,0 -1,0 0,0 -1,0 -1,0 0,0 0,0 -1,0zm-1 4c-1,-1 -1,-1 -2,0 1,0 1,0 1,0 0,0 0,0 0,0 1,0 1,0 2,0 0,0 0,0 0,0 1,1 1,1 2,1 1,0 1,0 1,0 0,1 1,1 2,1 0,0 0,0 0,0 1,1 1,1 2,0 1,0 1,1 2,1 0,1 1,1 2,0 -1,0 -2,0 -2,0 -1,-1 -1,-1 -2,-1 -1,0 -1,0 -2,-1 0,0 0,0 -1,0 -1,0 -1,0 -1,-1 0,0 -1,0 -2,0 0,0 0,0 0,0 -1,-1 -1,0 -2,0 0,0 0,0 0,0zm3 -9c0,0 -1,0 -1,1 0,0 0,0 0,0 0,-1 1,0 1,0 0,0 0,0 1,0 0,0 0,0 0,0 0,1 1,1 2,1 0,-1 0,0 1,0 0,0 0,1 1,1 0,0 0,0 0,0 1,0 1,0 2,0 1,0 1,0 1,1 1,0 1,0 2,0 -1,0 -2,0 -2,-1 0,0 0,0 -1,0 -1,0 -1,0 -2,-1 0,0 0,0 -1,0 0,0 0,0 0,-1 -1,0 -1,0 -2,0 0,0 0,0 -1,0 0,-1 0,-1 -1,0 0,0 0,0 0,-1z"/>
   <path class="fil5" d="M150 111c0,0 1,0 1,1 0,0 0,0 0,0 0,0 -1,0 -1,0 0,0 0,0 -1,0 0,0 0,0 0,0 0,1 -1,1 -2,1 0,0 0,0 0,0 -1,0 -1,1 -2,1 0,0 0,0 0,0 -1,0 -1,0 -2,0 -1,0 -1,0 -1,1 0,0 -1,1 -2,0 1,0 2,0 2,0 0,-1 0,-1 1,-1 1,0 1,0 2,-1 0,0 0,0 1,0 0,0 0,0 0,-1 1,0 1,0 2,0 0,0 0,0 1,0 0,-1 0,-1 1,0 0,0 0,0 0,-1zm3 9c0,-1 1,0 1,0 0,0 0,0 -1,0 0,0 0,0 0,0 0,0 -1,0 -1,0 -1,0 -1,0 -1,1 0,0 -1,0 -1,0 -1,0 -1,0 -1,0 0,1 -1,1 -1,1 -1,0 -1,0 -1,0 0,1 -1,1 -2,1 0,0 -1,0 -1,0 0,1 -1,1 -2,1 1,0 2,-1 2,-1 0,-1 1,-1 1,-1 1,0 2,0 2,0 0,-1 1,-1 1,-1 1,0 1,0 1,0 0,-1 1,-1 1,-1 1,0 1,0 1,0 0,0 1,0 1,0 0,0 0,0 1,0zm1 4c1,-1 1,-1 2,0 0,0 -1,0 -1,0 0,0 0,0 0,0 -1,0 -1,0 -2,0 0,0 0,0 0,0 -1,1 -1,1 -2,1 0,0 -1,0 -1,0 0,1 -1,1 -2,1 0,0 0,0 0,0 -1,1 -1,1 -2,0 -1,0 -1,1 -2,1 0,1 -1,1 -2,0 1,0 2,0 2,0 1,-1 1,-1 2,-1 1,0 1,0 2,-1 0,0 1,0 1,0 1,0 1,0 1,-1 0,0 1,0 2,0 0,0 0,0 0,0 1,-1 1,0 2,0 0,0 0,0 0,0zm-3 -9c1,0 1,0 1,1 0,0 0,0 0,0 0,-1 0,0 -1,0 0,0 0,0 -1,0 0,0 0,0 0,0 0,1 -1,1 -2,1 0,-1 0,0 0,0 -1,0 -1,1 -2,1 0,0 0,0 0,0 -1,0 -1,0 -2,0 0,0 -1,0 -1,1 0,0 -1,0 -2,0 1,0 2,0 2,-1 0,0 1,0 1,0 1,0 1,0 2,-1 0,0 0,0 1,0 0,0 0,0 1,-1 0,0 0,0 1,0 0,0 0,0 1,0 0,-1 0,-1 1,0 0,0 0,0 0,-1z"/>
   <path class="fil10" d="M111 127c3,0 7,1 10,2 3,1 5,3 8,5l1 -20c-2,-1 -4,-3 -6,-4 -3,-1 -5,-1 -7,-2l0 0 -1 0 0 0c0,0 -1,0 -1,1l-5 15 0 0c0,1 0,1 0,1 0,1 0,1 0,2 0,0 0,0 1,0 0,0 0,0 0,0zm10 3c-3,-1 -7,-2 -10,-2 0,0 0,0 -1,0 0,-1 0,-1 0,-1 -1,-1 -1,-1 -1,-2 0,0 1,0 1,-1l0 0 4 -15c1,-1 2,-1 3,-1l0 0c2,0 5,1 7,2 2,1 4,2 6,4l0 0 0 0 -1 20 0 0 0 0c-3,-2 -6,-3 -8,-4z"/>
   <path class="fil10" d="M157 127c-3,0 -7,1 -10,2 -2,1 -5,3 -8,5l-1 -20c2,-1 4,-3 6,-4 3,-1 5,-1 7,-2l0 0 1 0 0 0c0,0 1,0 1,1l5 15 0 0c0,1 0,1 0,1 0,1 0,1 0,2 0,0 0,0 0,0 -1,0 -1,0 -1,0zm-9 3c3,-1 6,-2 9,-2 0,0 1,0 1,0 0,-1 0,-1 1,-1 0,-1 0,-1 0,-2 0,0 0,0 -1,-1l0 0 -4 -15c-1,-1 -2,-1 -2,-1l-1 0c-2,0 -4,1 -7,2 -2,1 -4,2 -6,4l0 0 0 0 1 20 0 0 0 0c3,-2 6,-3 9,-4z"/>
   <path class="fil5" d="M84 189l-3 -2 7 -9 3 2 -7 9zm17 -58l0 5c7,1 12,2 17,4 5,3 9,6 12,10l8 0c3,-4 7,-7 12,-10 5,-2 10,-3 17,-4l0 -5c-6,0 -12,1 -17,4 -6,2 -11,6 -16,10l0 0 0 0c-5,-4 -10,-8 -16,-10 -5,-3 -11,-4 -17,-4zm14 19l-16 -9 0 0 0 0 2 -4 0 0 -1 -7 10 -27c9,0 17,3 24,8 7,-5 15,-8 24,-8l10 27 -1 7 0 0 0 0 2 4 0 0 0 0 -16 9 5 17 -1 0 -3 4 0 0 0 0 -20 -11 -20 11 0 0 0 0 -3 -4 -1 0 5 -17zm19 -39l-1 0c-3,-2 -7,-4 -10,-5 -4,-2 -8,-3 -12,-3l-10 27 0 0c13,1 23,6 33,14l0 -32 0 -1zm33 19l0 0 -9 -27c-5,0 -9,1 -12,3 -4,1 -8,3 -11,5l0 0 -1 1 0 32c10,-8 20,-13 33,-14zm0 8l-27 15 0 -1 27 -14 0 -1 -33 17 0 0 0 0 -33 -17 0 1 27 14 0 0 -27 -14 -2 3 29 16 1 0 -1 0 -17 10 3 3 20 -11 0 0 0 0 20 11 3 -3 -17 -10 -1 0 1 0 29 -16 -2 -3zm-28 15l-3 2 0 -1 3 -2 0 1zm-10 -1l3 2 0 1 -3 -2 0 -1zm-38 42l-3 -2 2 -4 -3 4 -3 -2 7 -10 3 2 -3 3 4 -3 2 2 -4 3 -2 7zm8 4l-3 -1 3 -5 -1 -1 -2 5 -3 -1 5 -11 3 2 -2 4 1 0 2 -4 3 2 -6 10zm8 3l-6 -2 4 -11 3 1 -3 10 2 1 0 1zm9 3l-3 -1 0 -3 -1 -1 -2 3 -3 0 5 -11 4 1 0 12zm-3 -6l1 -4 -2 4 1 0zm5 1l2 1 0 2c0,1 0,1 1,1 0,0 0,0 0,-1l0 -1c1,0 0,-1 0,-2 -2,-1 -2,-2 -3,-2 0,-1 0,-1 0,-1l0 -2c0,-1 2,-2 4,-2 2,1 3,2 3,3l0 2 -3 0 0 -2c0,-1 0,-1 0,-1 0,0 -1,0 -1,1l0 0c0,1 0,1 1,2 1,1 2,2 2,3 1,0 1,1 1,1l0 2c-1,1 -2,2 -5,1 -2,0 -3,-1 -3,-2l1 -3zm11 6l0 -12 4 0c1,0 2,1 2,1 1,0 1,1 1,2l0 1c0,1 -1,2 -2,2 2,0 2,1 2,2l0 2c0,1 0,1 -1,2 -1,0 -1,0 -2,0l-4 0zm4 -7l0 -2c0,-1 0,-1 -1,-1l0 3c1,0 1,0 1,0zm0 5l0 -3c0,0 0,0 -1,-1l0 5c1,0 1,0 1,-1zm10 2l-6 0 -1 -12 6 0 0 1 -3 1 1 3 2 0 1 1 -3 0 0 4 3 0 0 2zm10 -2l-3 0c-1,0 -1,-1 -1,-2l0 0 0 -1c-1,-1 -1,-1 -1,-2 0,0 0,0 -1,0l1 6 -3 0 -2 -11 4 -1c1,0 1,0 2,0 1,0 1,1 1,1l1 2c0,1 -1,1 -2,2 1,0 2,0 2,1l1 2c0,2 0,3 1,3zm-5 -7l-1 -2c0,0 0,-1 -1,0l1 3c0,0 1,-1 1,-1zm14 4l-3 1 -1 -3 -2 0 1 4 -4 1 -1 -13 4 -1 6 11zm-5 -4l-2 -3 1 4 1 -1zm16 -1l-3 1 -2 -6 1 7 -2 1 -5 -6 3 6 -2 2 -5 -11 3 -2 4 5 -1 -6 4 -2 5 11zm8 -6l-2 2 -3 -2 -1 0 1 3 -2 2 -4 -11 3 -2 8 8zm-6 -2l-2 -2 2 3 0 -1zm12 -2l-5 4 -7 -10 2 -2 7 8 2 -1 1 1z"/>
  </g>
 </g>
</svg>
